<?xml version="1.0" encoding="UTF-8"?>
<!DOCTYPE svg PUBLIC "-//W3C//DTD SVG 1.1//EN" "http://www.w3.org/Graphics/SVG/1.1/DTD/svg11.dtd">
<svg xmlns="http://www.w3.org/2000/svg" version="1.1" width="500px" height="500px" style="shape-rendering:geometricPrecision; text-rendering:geometricPrecision; image-rendering:optimizeQuality; fill-rule:evenodd; clip-rule:evenodd" xmlns:xlink="http://www.w3.org/1999/xlink">
<g><path style="opacity:0.975" fill="#b7bcc3" d="M 486.5,-0.5 C 490.833,-0.5 495.167,-0.5 499.5,-0.5C 499.5,4.83333 499.5,10.1667 499.5,15.5C 498.542,15.0472 497.708,14.3805 497,13.5C 496.378,10.2615 495.212,7.26149 493.5,4.5C 493.167,3.5 492.5,2.83333 491.5,2.5C 489.326,2.25027 487.659,1.25027 486.5,-0.5 Z"/></g>
<g><path style="opacity:1" fill="#caced2" d="M -0.5,-0.5 C 5.5,-0.5 11.5,-0.5 17.5,-0.5C 16.791,0.403972 15.791,0.737305 14.5,0.5C 11.5718,0.565131 8.90517,1.2318 6.5,2.5C 5.5,3.5 4.5,4.5 3.5,5.5C 2.89638,8.21769 1.56305,10.551 -0.5,12.5C -0.5,8.16667 -0.5,3.83333 -0.5,-0.5 Z"/></g>
<g><path style="opacity:0.004" fill="#575f67" d="M 491.5,2.5 C 492.5,2.83333 493.167,3.5 493.5,4.5C 492.167,4.5 491.5,3.83333 491.5,2.5 Z"/></g>
<g><path style="opacity:0.345" fill="#68717c" d="M 14.5,0.5 C 11.5035,3.30933 7.6702,6.97599 3,11.5C 2.57619,14.0254 1.40953,16.0254 -0.5,17.5C -0.5,15.8333 -0.5,14.1667 -0.5,12.5C 1.56305,10.551 2.89638,8.21769 3.5,5.5C 5.48023,6.36756 7.1469,5.7009 8.5,3.5C 8.04311,2.70245 7.37644,2.36912 6.5,2.5C 8.90517,1.2318 11.5718,0.565131 14.5,0.5 Z"/></g>
<g><path style="opacity:1" fill="#59989c" d="M 384.5,116.5 C 385.627,117.122 386.627,117.955 387.5,119C 386.267,121.314 384.933,123.481 383.5,125.5C 383.643,123.738 383.309,122.071 382.5,120.5C 383.397,120.331 384.397,119.998 385.5,119.5C 384.873,118.583 384.539,117.583 384.5,116.5 Z"/></g>
<g><path style="opacity:1" fill="#63c0bc" d="M 384.5,116.5 C 384.539,117.583 384.873,118.583 385.5,119.5C 384.397,119.998 383.397,120.331 382.5,120.5C 383.309,122.071 383.643,123.738 383.5,125.5C 355.229,175.044 327.229,224.711 299.5,274.5C 299.628,272.345 299.128,270.345 298,268.5C 290.912,261.416 284.578,253.749 279,245.5C 275.584,241.913 272.084,238.58 268.5,235.5C 280.988,212.527 293.488,189.527 306,166.5C 311.604,156.568 317.604,146.901 324,137.5C 337.067,123.632 353.067,115.966 372,114.5C 376.442,114.326 380.609,114.993 384.5,116.5 Z"/></g>
<g><path style="opacity:0.912" fill="#bb5d6d" d="M 153.5,183.5 C 142.471,179.813 131.138,178.646 119.5,180C 117.998,180.583 116.665,181.416 115.5,182.5C 117.854,184.246 118.854,186.579 118.5,189.5C 112.097,182.94 113.431,179.106 122.5,178C 133.539,176.616 143.873,178.45 153.5,183.5 Z"/></g>
<g><path style="opacity:1" fill="#f75c70" d="M 153.5,183.5 C 154.552,185.256 156.219,185.923 158.5,185.5C 160.126,188.622 162.792,190.288 166.5,190.5C 167.539,192.531 169.205,193.864 171.5,194.5C 171.973,195.906 172.973,196.573 174.5,196.5C 175.5,196.833 176.167,197.5 176.5,198.5C 177.933,200.558 178.6,202.892 178.5,205.5C 179.675,205.281 180.675,205.614 181.5,206.5C 179.533,209.193 179.367,211.86 181,214.5C 182.489,213.828 184.322,213.828 186.5,214.5C 187.283,216.288 188.616,217.288 190.5,217.5C 190.427,219.027 191.094,220.027 192.5,220.5C 191.969,223.237 191.136,225.904 190,228.5C 182.022,240.799 174.855,253.465 168.5,266.5C 166.047,262.985 163.714,259.319 161.5,255.5C 160.583,254.873 159.583,254.539 158.5,254.5C 158.5,254.167 158.5,253.833 158.5,253.5C 158.034,251.799 158.034,250.299 158.5,249C 156.258,246.622 153.925,244.456 151.5,242.5C 152.016,238.303 150.35,235.636 146.5,234.5C 146.5,234.167 146.5,233.833 146.5,233.5C 145.448,230.395 144.115,227.395 142.5,224.5C 141.583,223.873 140.583,223.539 139.5,223.5C 137.568,220.634 135.901,217.634 134.5,214.5C 134.714,212.856 134.38,211.356 133.5,210C 134.973,209.29 135.64,208.124 135.5,206.5C 134.07,206.421 132.736,206.754 131.5,207.5C 130.41,206.609 130.41,205.609 131.5,204.5C 130.575,203.438 129.575,203.438 128.5,204.5C 128.026,200.72 126.36,197.553 123.5,195C 123.645,194.228 123.978,193.561 124.5,193C 123.207,192.51 121.873,192.343 120.5,192.5C 119.599,191.71 118.932,190.71 118.5,189.5C 118.854,186.579 117.854,184.246 115.5,182.5C 116.665,181.416 117.998,180.583 119.5,180C 131.138,178.646 142.471,179.813 153.5,183.5 Z"/></g>
<g><path style="opacity:0.863" fill="#bf5a6c" d="M 153.5,183.5 C 155.553,183.402 157.22,184.069 158.5,185.5C 156.219,185.923 154.552,185.256 153.5,183.5 Z"/></g>
<g><path style="opacity:0.831" fill="#b45c6b" d="M 158.5,185.5 C 161.54,186.68 164.206,188.347 166.5,190.5C 162.792,190.288 160.126,188.622 158.5,185.5 Z"/></g>
<g><path style="opacity:0.824" fill="#b1596b" d="M 166.5,190.5 C 168.754,191.124 170.421,192.457 171.5,194.5C 169.205,193.864 167.539,192.531 166.5,190.5 Z"/></g>
<g><path style="opacity:0.008" fill="#7f4f5c" d="M 171.5,194.5 C 173.027,194.427 174.027,195.094 174.5,196.5C 172.973,196.573 171.973,195.906 171.5,194.5 Z"/></g>
<g><path style="opacity:1" fill="#c95d6f" d="M 120.5,192.5 C 121.873,192.343 123.207,192.51 124.5,193C 123.978,193.561 123.645,194.228 123.5,195C 126.36,197.553 128.026,200.72 128.5,204.5C 125.34,200.852 122.673,196.852 120.5,192.5 Z"/></g>
<g><path style="opacity:1" fill="#db5c6d" d="M 134.5,214.5 C 132,211.506 130,208.173 128.5,204.5C 129.575,203.438 130.575,203.438 131.5,204.5C 130.41,205.609 130.41,206.609 131.5,207.5C 132.736,206.754 134.07,206.421 135.5,206.5C 135.64,208.124 134.973,209.29 133.5,210C 134.38,211.356 134.714,212.856 134.5,214.5 Z"/></g>
<g><path style="opacity:1" fill="#e25c6f" d="M 176.5,198.5 C 182.703,203.703 187.37,210.036 190.5,217.5C 188.616,217.288 187.283,216.288 186.5,214.5C 184.322,213.828 182.489,213.828 181,214.5C 179.367,211.86 179.533,209.193 181.5,206.5C 180.675,205.614 179.675,205.281 178.5,205.5C 178.6,202.892 177.933,200.558 176.5,198.5 Z"/></g>
<g><path style="opacity:0.349" fill="#af5b6f" d="M 190.5,217.5 C 191.906,217.973 192.573,218.973 192.5,220.5C 191.094,220.027 190.427,219.027 190.5,217.5 Z"/></g>
<g><path style="opacity:0.933" fill="#cc5f74" d="M 139.5,223.5 C 140.583,223.539 141.583,223.873 142.5,224.5C 144.115,227.395 145.448,230.395 146.5,233.5C 144.179,230.204 141.846,226.871 139.5,223.5 Z"/></g>
<g><path style="opacity:0.431" fill="#934f45" d="M 194.5,224.5 C 195.906,224.973 196.573,225.973 196.5,227.5C 195.094,227.027 194.427,226.027 194.5,224.5 Z"/></g>
<g><path style="opacity:0.388" fill="#7c4747" d="M 198.5,231.5 C 199.906,231.973 200.573,232.973 200.5,234.5C 199.094,234.027 198.427,233.027 198.5,231.5 Z"/></g>
<g><path style="opacity:1" fill="#d05d6e" d="M 146.5,234.5 C 150.35,235.636 152.016,238.303 151.5,242.5C 149.847,239.869 148.181,237.203 146.5,234.5 Z"/></g>
<g><path style="opacity:1" fill="#975046" d="M 200.5,234.5 C 201.89,235.899 202.89,237.566 203.5,239.5C 201.241,238.656 200.241,236.989 200.5,234.5 Z"/></g>
<g><path style="opacity:1" fill="#f8f9f9" d="M 268.5,235.5 C 272.084,238.58 275.584,241.913 279,245.5C 284.578,253.749 290.912,261.416 298,268.5C 299.128,270.345 299.628,272.345 299.5,274.5C 296.833,279.5 294.167,284.5 291.5,289.5C 290.5,289.5 289.5,289.5 288.5,289.5C 287.587,291.835 286.253,294.001 284.5,296C 285.337,297.011 285.67,298.178 285.5,299.5C 284.416,302.004 283.083,304.337 281.5,306.5C 279.241,307.344 278.241,309.011 278.5,311.5C 275.353,318.461 271.687,325.127 267.5,331.5C 264.939,329.36 262.605,327.027 260.5,324.5C 258.542,321.208 256.209,318.208 253.5,315.5C 252.92,313.251 251.587,311.585 249.5,310.5C 248.581,307.911 246.914,305.911 244.5,304.5C 241.833,300.833 239.167,297.167 236.5,293.5C 237.167,293.5 237.5,293.167 237.5,292.5C 238.465,287.902 240.465,283.902 243.5,280.5C 244.906,280.027 245.573,279.027 245.5,277.5C 245.66,275.847 246.326,274.514 247.5,273.5C 251.992,269.201 254.992,263.868 256.5,257.5C 259.995,249.839 263.995,242.505 268.5,235.5 Z"/></g>
<g><path style="opacity:1" fill="#ce5037" d="M 192.5,220.5 C 193.674,221.514 194.34,222.847 194.5,224.5C 194.427,226.027 195.094,227.027 196.5,227.5C 197.674,228.514 198.34,229.847 198.5,231.5C 198.427,233.027 199.094,234.027 200.5,234.5C 200.241,236.989 201.241,238.656 203.5,239.5C 203.427,241.027 204.094,242.027 205.5,242.5C 205.571,245.311 206.238,247.978 207.5,250.5C 210.065,252.676 212.065,255.343 213.5,258.5C 213.291,259.086 212.957,259.586 212.5,260C 215.629,260.117 216.795,261.617 216,264.5C 214.935,262.604 214.102,262.437 213.5,264C 215.146,266.595 215.813,269.428 215.5,272.5C 216.93,272.579 218.264,272.246 219.5,271.5C 220.506,271.938 220.506,272.604 219.5,273.5C 219.957,274.298 220.624,274.631 221.5,274.5C 214.609,285.564 207.109,296.231 199,306.5C 197.878,308.407 197.045,310.407 196.5,312.5C 195.833,312.167 195.167,311.833 194.5,311.5C 193.617,308.296 191.95,305.629 189.5,303.5C 188.094,303.027 187.427,302.027 187.5,300.5C 186.921,297.669 185.588,295.336 183.5,293.5C 183.573,291.973 182.906,290.973 181.5,290.5C 181.25,288.326 180.25,286.659 178.5,285.5C 177.662,285.158 177.328,284.492 177.5,283.5C 177.573,281.973 176.906,280.973 175.5,280.5C 175.573,278.973 174.906,277.973 173.5,277.5C 171.336,275.178 169.669,272.511 168.5,269.5C 168.5,268.5 168.5,267.5 168.5,266.5C 174.855,253.465 182.022,240.799 190,228.5C 191.136,225.904 191.969,223.237 192.5,220.5 Z"/></g>
<g><path style="opacity:0.373" fill="#854d49" d="M 203.5,239.5 C 204.906,239.973 205.573,240.973 205.5,242.5C 204.094,242.027 203.427,241.027 203.5,239.5 Z"/></g>
<g><path style="opacity:0.986" fill="#d25f71" d="M 151.5,242.5 C 153.925,244.456 156.258,246.622 158.5,249C 158.034,250.299 158.034,251.799 158.5,253.5C 155.806,250.124 153.473,246.457 151.5,242.5 Z"/></g>
<g><path style="opacity:1" fill="#cc5d68" d="M 158.5,254.5 C 159.583,254.539 160.583,254.873 161.5,255.5C 163.714,259.319 166.047,262.985 168.5,266.5C 168.5,267.5 168.5,268.5 168.5,269.5C 164.932,264.709 161.598,259.709 158.5,254.5 Z"/></g>
<g><path style="opacity:1" fill="#bf523d" d="M 205.5,242.5 C 210,248.827 214,255.494 217.5,262.5C 217.427,264.027 218.094,265.027 219.5,265.5C 221.924,268.008 223.59,271.008 224.5,274.5C 223.348,273.375 222.348,273.375 221.5,274.5C 220.624,274.631 219.957,274.298 219.5,273.5C 220.506,272.604 220.506,271.938 219.5,271.5C 218.264,272.246 216.93,272.579 215.5,272.5C 215.813,269.428 215.146,266.595 213.5,264C 214.102,262.437 214.935,262.604 216,264.5C 216.795,261.617 215.629,260.117 212.5,260C 212.957,259.586 213.291,259.086 213.5,258.5C 212.065,255.343 210.065,252.676 207.5,250.5C 206.238,247.978 205.571,245.311 205.5,242.5 Z"/></g>
<g><path style="opacity:0.298" fill="#7e4a49" d="M 217.5,262.5 C 218.906,262.973 219.573,263.973 219.5,265.5C 218.094,265.027 217.427,264.027 217.5,262.5 Z"/></g>
<g><path style="opacity:0.937" fill="#d2d7db" d="M 256.5,257.5 C 254.992,263.868 251.992,269.201 247.5,273.5C 249.997,267.835 252.997,262.502 256.5,257.5 Z"/></g>
<g><path style="opacity:0.388" fill="#906947" d="M 224.5,274.5 C 225.906,274.973 226.573,275.973 226.5,277.5C 225.094,277.027 224.427,276.027 224.5,274.5 Z"/></g>
<g><path style="opacity:1" fill="#f49135" d="M 224.5,274.5 C 224.427,276.027 225.094,277.027 226.5,277.5C 226.427,279.027 227.094,280.027 228.5,280.5C 229.338,280.842 229.672,281.508 229.5,282.5C 228.916,285.285 229.916,286.952 232.5,287.5C 232.427,289.027 233.094,290.027 234.5,290.5C 234.427,292.027 235.094,293.027 236.5,293.5C 239.167,297.167 241.833,300.833 244.5,304.5C 245.419,307.089 247.086,309.089 249.5,310.5C 250.08,312.749 251.413,314.415 253.5,315.5C 254.004,319.92 256.337,322.92 260.5,324.5C 262.605,327.027 264.939,329.36 267.5,331.5C 266.833,332.833 266.167,334.167 265.5,335.5C 263.018,336.663 261.684,338.663 261.5,341.5C 261.672,342.492 261.338,343.158 260.5,343.5C 258.896,344.287 258.229,345.62 258.5,347.5C 256.241,348.344 255.241,350.011 255.5,352.5C 255.5,352.833 255.5,353.167 255.5,353.5C 253.952,353.821 253.285,354.821 253.5,356.5C 251.988,360.201 249.988,363.534 247.5,366.5C 246.542,366.953 245.708,367.619 245,368.5C 243.278,371.279 242.111,374.279 241.5,377.5C 241.672,378.492 241.338,379.158 240.5,379.5C 239.167,379.5 237.833,379.5 236.5,379.5C 235.37,374.956 233.37,370.789 230.5,367C 232.158,366.275 232.658,365.108 232,363.5C 231.692,364.308 231.192,364.975 230.5,365.5C 229.378,364.37 228.044,363.703 226.5,363.5C 225.678,358.055 223.012,354.055 218.5,351.5C 218.5,351.167 218.5,350.833 218.5,350.5C 218.737,346.684 217.071,344.351 213.5,343.5C 213.5,343.167 213.5,342.833 213.5,342.5C 211.485,336.816 208.819,331.483 205.5,326.5C 204.675,325.614 203.675,325.281 202.5,325.5C 200.833,322.833 199.167,320.167 197.5,317.5C 197.371,315.784 197.038,314.117 196.5,312.5C 197.045,310.407 197.878,308.407 199,306.5C 207.109,296.231 214.609,285.564 221.5,274.5C 222.348,273.375 223.348,273.375 224.5,274.5 Z"/></g>
<g><path style="opacity:0.188" fill="#874a4a" d="M 173.5,277.5 C 174.906,277.973 175.573,278.973 175.5,280.5C 174.094,280.027 173.427,279.027 173.5,277.5 Z"/></g>
<g><path style="opacity:0.29" fill="#825d40" d="M 226.5,277.5 C 227.906,277.973 228.573,278.973 228.5,280.5C 227.094,280.027 226.427,279.027 226.5,277.5 Z"/></g>
<g><path style="opacity:0.224" fill="#868b92" d="M 245.5,277.5 C 245.573,279.027 244.906,280.027 243.5,280.5C 243.427,278.973 244.094,277.973 245.5,277.5 Z"/></g>
<g><path style="opacity:0.212" fill="#864a48" d="M 175.5,280.5 C 176.906,280.973 177.573,281.973 177.5,283.5C 176.094,283.027 175.427,282.027 175.5,280.5 Z"/></g>
<g><path style="opacity:1" fill="#c48245" d="M 229.5,282.5 C 231.25,283.659 232.25,285.326 232.5,287.5C 229.916,286.952 228.916,285.285 229.5,282.5 Z"/></g>
<g><path style="opacity:0.298" fill="#8a4d48" d="M 178.5,285.5 C 180.25,286.659 181.25,288.326 181.5,290.5C 179.75,289.341 178.75,287.674 178.5,285.5 Z"/></g>
<g><path style="opacity:0.459" fill="#a06b4c" d="M 232.5,287.5 C 233.906,287.973 234.573,288.973 234.5,290.5C 233.094,290.027 232.427,289.027 232.5,287.5 Z"/></g>
<g><path style="opacity:0.239" fill="#8c4c4b" d="M 181.5,290.5 C 182.906,290.973 183.573,291.973 183.5,293.5C 182.094,293.027 181.427,292.027 181.5,290.5 Z"/></g>
<g><path style="opacity:0.475" fill="#906b4c" d="M 234.5,290.5 C 235.5,291.167 236.5,291.833 237.5,292.5C 237.5,293.167 237.167,293.5 236.5,293.5C 235.094,293.027 234.427,292.027 234.5,290.5 Z"/></g>
<g><path style="opacity:0.98" fill="#c0c5ca" d="M 291.5,289.5 C 289.485,292.869 287.485,296.202 285.5,299.5C 285.67,298.178 285.337,297.011 284.5,296C 286.253,294.001 287.587,291.835 288.5,289.5C 289.5,289.5 290.5,289.5 291.5,289.5 Z"/></g>
<g><path style="opacity:0.314" fill="#8d4f49" d="M 183.5,293.5 C 185.588,295.336 186.921,297.669 187.5,300.5C 185.412,298.664 184.079,296.331 183.5,293.5 Z"/></g>
<g><path style="opacity:0.955" fill="#b3b8c0" d="M 281.5,306.5 C 281.25,308.674 280.25,310.341 278.5,311.5C 278.241,309.011 279.241,307.344 281.5,306.5 Z"/></g>
<g><path style="opacity:0.435" fill="#864c47" d="M 189.5,303.5 C 191.95,305.629 193.617,308.296 194.5,311.5C 192.05,309.371 190.383,306.704 189.5,303.5 Z"/></g>
<g><path style="opacity:1" fill="#e6a767" d="M 244.5,304.5 C 246.914,305.911 248.581,307.911 249.5,310.5C 247.086,309.089 245.419,307.089 244.5,304.5 Z"/></g>
<g><path style="opacity:1" fill="#eda869" d="M 249.5,310.5 C 251.587,311.585 252.92,313.251 253.5,315.5C 251.413,314.415 250.08,312.749 249.5,310.5 Z"/></g>
<g><path style="opacity:0.314" fill="#8e6445" d="M 194.5,311.5 C 195.167,311.833 195.833,312.167 196.5,312.5C 197.038,314.117 197.371,315.784 197.5,317.5C 195.992,315.819 194.992,313.819 194.5,311.5 Z"/></g>
<g><path style="opacity:1" fill="#eea159" d="M 253.5,315.5 C 256.209,318.208 258.542,321.208 260.5,324.5C 256.337,322.92 254.004,319.92 253.5,315.5 Z"/></g>
<g><path style="opacity:1" fill="#b57a47" d="M 202.5,325.5 C 203.675,325.281 204.675,325.614 205.5,326.5C 208.819,331.483 211.485,336.816 213.5,342.5C 209.473,337.125 205.807,331.459 202.5,325.5 Z"/></g>
<g><path style="opacity:0.318" fill="#a1724b" d="M 265.5,335.5 C 264.525,337.795 263.192,339.795 261.5,341.5C 261.684,338.663 263.018,336.663 265.5,335.5 Z"/></g>
<g><path style="opacity:1" fill="#ab7645" d="M 213.5,343.5 C 217.071,344.351 218.737,346.684 218.5,350.5C 216.6,348.381 214.934,346.047 213.5,343.5 Z"/></g>
<g><path style="opacity:0.447" fill="#a36f47" d="M 260.5,343.5 C 260.34,345.153 259.674,346.486 258.5,347.5C 258.229,345.62 258.896,344.287 260.5,343.5 Z"/></g>
<g><path style="opacity:0.788" fill="#b77d48" d="M 258.5,347.5 C 257.89,349.434 256.89,351.101 255.5,352.5C 255.241,350.011 256.241,348.344 258.5,347.5 Z"/></g>
<g><path style="opacity:1" fill="#c58446" d="M 218.5,351.5 C 223.012,354.055 225.678,358.055 226.5,363.5C 223.474,359.795 220.808,355.795 218.5,351.5 Z"/></g>
<g><path style="opacity:0.361" fill="#a27244" d="M 255.5,353.5 C 255.068,354.71 254.401,355.71 253.5,356.5C 253.285,354.821 253.952,353.821 255.5,353.5 Z"/></g>
<g><path style="opacity:1" fill="#c38345" d="M 226.5,363.5 C 228.044,363.703 229.378,364.37 230.5,365.5C 231.192,364.975 231.692,364.308 232,363.5C 232.658,365.108 232.158,366.275 230.5,367C 233.37,370.789 235.37,374.956 236.5,379.5C 232.68,374.539 229.347,369.206 226.5,363.5 Z"/></g>
<g><path style="opacity:0.165" fill="#896242" d="M 247.5,366.5 C 246.247,370.611 244.247,374.277 241.5,377.5C 242.111,374.279 243.278,371.279 245,368.5C 245.708,367.619 246.542,366.953 247.5,366.5 Z"/></g>
<g><path style="opacity:0.847" fill="#b8804b" d="M 236.5,379.5 C 237.833,379.5 239.167,379.5 240.5,379.5C 239.064,383.439 237.731,383.439 236.5,379.5 Z"/></g>
<g><path style="opacity:0.302" fill="#697583" d="M 499.5,478.5 C 499.5,479.5 499.5,480.5 499.5,481.5C 498.167,480.5 498.167,479.5 499.5,478.5 Z"/></g>
<g><path style="opacity:0.976" fill="#a4a9ae" d="M -0.5,483.5 C 1.25027,484.659 2.25027,486.326 2.5,488.5C 1.88258,488.389 1.38258,488.056 1,487.5C 0.504543,489.473 0.337876,491.473 0.5,493.5C 0.166667,493.5 -0.166667,493.5 -0.5,493.5C -0.5,490.167 -0.5,486.833 -0.5,483.5 Z"/></g>
<g><path style="opacity:0.502" fill="#737b87" d="M 497.5,487.5 C 497.262,489.404 496.262,490.738 494.5,491.5C 494.738,489.596 495.738,488.262 497.5,487.5 Z"/></g>
<g><path style="opacity:0.993" fill="#dfe1e3" d="M 2.5,488.5 C 5.83333,492.5 9.5,496.167 13.5,499.5C 10.5,499.5 7.5,499.5 4.5,499.5C 3.68512,498.163 2.51845,497.163 1,496.5C 0.517215,495.552 0.350549,494.552 0.5,493.5C 0.337876,491.473 0.504543,489.473 1,487.5C 1.38258,488.056 1.88258,488.389 2.5,488.5 Z"/></g>
<g><path style="opacity:0.573" fill="#9198a3" d="M 494.5,491.5 C 493.833,494.167 492.167,495.833 489.5,496.5C 490.833,494.5 492.5,492.833 494.5,491.5 Z"/></g>
<g><path style="opacity:0.982" fill="#e4e7ec" d="M 499.5,484.5 C 499.5,487.833 499.5,491.167 499.5,494.5C 497.5,495.833 495.833,497.5 494.5,499.5C 491.833,499.5 489.167,499.5 486.5,499.5C 487.9,498.9 488.9,497.9 489.5,496.5C 492.167,495.833 493.833,494.167 494.5,491.5C 496.262,490.738 497.262,489.404 497.5,487.5C 497.932,486.29 498.599,485.29 499.5,484.5 Z"/></g>
<g><path style="opacity:0.651" fill="#9da4ae" d="M 489.5,496.5 C 488.9,497.9 487.9,498.9 486.5,499.5C 485.833,499.5 485.167,499.5 484.5,499.5C 485.659,497.75 487.326,496.75 489.5,496.5 Z"/></g>
</svg>
